<?xml version="1.0" encoding="utf-8"?>
<svg version="1.1" id="checks" xmlns="http://www.w3.org/2000/svg" xmlns:xlink="http://www.w3.org/1999/xlink" x="0px" y="0px"
	 viewBox="0 0 457 228" style="enable-background:new 0 0 457 228;" xml:space="preserve">
<g id="Logo">
	<g id="DAO">
		<path fill="#FFFFFF" d="M104.1,200.4c0,3.7-1.3,6.7-3.8,9.2c-2.5,2.4-5.8,3.7-9.7,3.7H62.4v-55h28.3c3.9,0,7.1,1.2,9.7,3.7
			c2.5,2.4,3.8,5.5,3.8,9.2V200.4z M94.4,200.9v-30.4c0-0.9-0.3-1.8-1-2.5c-0.7-0.7-1.4-1-2.3-1H71.9v37.4h19.3c0.9,0,1.7-0.3,2.3-1
			C94.1,202.7,94.4,201.9,94.4,200.9z"/>
		<path fill="#FFFFFF" d="M161.1,179.7v33.5h-9.6v-17.4h-22.6v17.4h-9.6v-33.5c0-2.1,0.3-3.8,0.8-5.1c0.5-1.3,1.5-2.7,2.8-4l13.1-12.4
			h8.3l13.1,12.4c1.4,1.3,2.3,2.7,2.8,4C160.8,176,161.1,177.7,161.1,179.7z M151.5,187.5v-7.3c0-1.6-0.4-2.8-1.2-3.6l-10.2-10.1
			l-10,10.1c-0.8,0.8-1.2,2-1.2,3.6v7.3H151.5z"/>
		<path fill="#FFFFFF" d="M218,200.4c0,3.7-1.3,6.7-3.8,9.2c-2.5,2.4-5.8,3.7-9.7,3.7h-14.8c-3.9,0-7.1-1.2-9.7-3.7
			c-2.5-2.4-3.8-5.5-3.8-9.2V171c0-3.7,1.3-6.7,3.8-9.2c2.5-2.4,5.8-3.7,9.7-3.7h14.8c3.9,0,7.1,1.2,9.7,3.7
			c2.5,2.4,3.8,5.5,3.8,9.2V200.4z M208.5,200.9v-30.4c0-0.9-0.3-1.8-1-2.5c-0.7-0.7-1.4-1-2.3-1H189c-0.9,0-1.7,0.3-2.3,1
			c-0.7,0.7-1,1.5-1,2.5v30.4c0,0.9,0.3,1.8,1,2.5c0.7,0.7,1.4,1,2.3,1h16.1c0.9,0,1.7-0.3,2.3-1
			C208.2,202.7,208.5,201.9,208.5,200.9z M202.4,188.5c0,0.6-0.2,1.2-0.7,1.6c-0.4,0.4-1,0.6-1.7,0.6h-5.6c-0.7,0-1.3-0.2-1.7-0.6
			c-0.4-0.4-0.7-0.9-0.7-1.6v-5.4c0-0.6,0.2-1.2,0.7-1.6c0.4-0.4,1-0.6,1.7-0.6h5.6c0.7,0,1.3,0.2,1.7,0.6c0.4,0.4,0.7,0.9,0.7,1.6
			V188.5z"/>
	</g>
	<g id="Check">
		<path fill="#FFFFFF" d="M217.8,129.2c0,3.7-1.3,6.7-3.8,9.2c-2.5,2.4-5.8,3.7-9.7,3.7h-14.6c-3.9,0-7.1-1.2-9.7-3.7
			c-2.5-2.4-3.8-5.5-3.8-9.2V99.8c0-3.7,1.3-6.7,3.8-9.2c2.5-2.4,5.8-3.7,9.7-3.7h14.8c3.9,0,7,1.3,9.5,3.9c2.5,2.6,3.7,5.8,3.7,9.5
			v3.3h-9.7v-4.2c0-0.9-0.3-1.8-1-2.5c-0.7-0.7-1.4-1-2.3-1h-15.6c-0.9,0-1.7,0.3-2.3,1c-0.7,0.7-1,1.5-1,2.5v30.1
			c0,0.9,0.3,1.8,1,2.5c0.7,0.7,1.4,1,2.3,1h15.6c0.9,0,1.7-0.3,2.3-1c0.7-0.7,1-1.5,1-2.5v-4.3h9.7V129.2z"/>
		<path fill="#FFFFFF" d="M274.5,142h-9.7v-23.1h-22.2V142H233V87h9.7v22.9h22.2V87h9.7V142z"/>
		<path fill="#FFFFFF" d="M325.4,142h-35.7V87h35.7v8.8h-26.2V110h20.3v9h-20.3v14.1h26.2V142z"/>
		<path fill="#FFFFFF" d="M382.1,129.2c0,3.7-1.3,6.7-3.8,9.2c-2.5,2.4-5.8,3.7-9.7,3.7H354c-3.9,0-7.1-1.2-9.7-3.7
			c-2.5-2.4-3.8-5.5-3.8-9.2V99.8c0-3.7,1.3-6.7,3.8-9.2c2.5-2.4,5.8-3.7,9.7-3.7h14.8c3.9,0,7,1.3,9.5,3.9c2.5,2.6,3.7,5.8,3.7,9.5
			v3.3h-9.7v-4.2c0-0.9-0.3-1.8-1-2.5c-0.7-0.7-1.4-1-2.3-1h-15.6c-0.9,0-1.7,0.3-2.3,1c-0.7,0.7-1,1.5-1,2.5v30.1
			c0,0.9,0.3,1.8,1,2.5c0.7,0.7,1.4,1,2.3,1h15.6c0.9,0,1.7-0.3,2.3-1c0.7-0.7,1-1.5,1-2.5v-4.3h9.7V129.2z"/>
		<path fill="#FFFFFF" d="M439.9,138.2l-8.5,5.4L413.5,118l-6.5,7v17.1h-9.8V87h9.8v25L432.4,86l7.1,6.5l-18.7,18.9L439.9,138.2z"/>
	</g>
	<g id="Black_00000026856863047234420030000005961771066460513466_">
		<path fill="#FFFFFF" d="M57.3,57.7c0,3.7-1.3,6.8-3.9,9.3c-2.6,2.5-5.9,3.7-9.7,3.7H17.1v-55h26.6c3.9,0,7.1,1.2,9.7,3.7
			c2.6,2.5,3.9,5.6,3.9,9.3v5.6c0,3.9-1.2,6.7-3.7,8.6c2.5,1.9,3.7,4.6,3.7,8V57.7z M47.6,34.2V28c0-0.9-0.3-1.8-1-2.6
			c-0.7-0.8-1.5-1.2-2.3-1.2H26.5v14.3h16.9c1.7,0,2.8-0.3,3.4-0.9C47.4,37.1,47.6,35.9,47.6,34.2z M47.6,58.5v-6.7
			c0-1.8-0.3-3-0.8-3.6c-0.5-0.6-1.6-0.9-3.1-0.9H26.5v15.1h17.8c0.8,0,1.6-0.4,2.3-1.2C47.3,60.3,47.6,59.4,47.6,58.5z"/>
		<path fill="#FFFFFF" d="M107,70.7H72.5v-55h9.9v46.2H107V70.7z"/>
		<path fill="#FFFFFF" d="M162.1,37.2v33.5h-9.6V53.4h-22.6v17.4h-9.6V37.2c0-2.1,0.3-3.8,0.8-5.1c0.5-1.3,1.5-2.7,2.8-4L137,15.7h8.3
			l13.1,12.4c1.4,1.3,2.3,2.7,2.8,4C161.8,33.5,162.1,35.2,162.1,37.2z M152.5,45v-7.3c0-1.6-0.4-2.8-1.2-3.6l-10.2-10.1l-10,10.1
			c-0.8,0.8-1.2,2-1.2,3.6V45H152.5z"/>
		<path fill="#FFFFFF" d="M218.8,57.9c0,3.7-1.3,6.7-3.8,9.2c-2.5,2.4-5.8,3.7-9.7,3.7h-14.6c-3.9,0-7.1-1.2-9.7-3.7
			c-2.5-2.4-3.8-5.5-3.8-9.2V28.5c0-3.7,1.3-6.7,3.8-9.2c2.5-2.4,5.8-3.7,9.7-3.7h14.8c3.9,0,7,1.3,9.5,3.9c2.5,2.6,3.7,5.8,3.7,9.5
			v3.3h-9.7v-4.2c0-0.9-0.3-1.8-1-2.5c-0.7-0.7-1.4-1-2.3-1h-15.6c-0.9,0-1.7,0.3-2.3,1c-0.7,0.7-1,1.5-1,2.5v30.1
			c0,0.9,0.3,1.8,1,2.5c0.7,0.7,1.4,1,2.3,1h15.6c0.9,0,1.7-0.3,2.3-1c0.7-0.7,1-1.5,1-2.5V54h9.7V57.9z"/>
		<path fill="#FFFFFF" d="M276.6,66.9l-8.5,5.4l-17.8-25.6l-6.5,7v17.1H234V15.7h9.8v25l25.3-25.9l7.1,6.5l-18.7,18.9L276.6,66.9z"/>
	</g>
</g>
</svg>
