<?xml version="1.0" standalone="no"?>
<!DOCTYPE svg PUBLIC "-//W3C//DTD SVG 20010904//EN"
 "http://www.w3.org/TR/2001/REC-SVG-20010904/DTD/svg10.dtd">
<svg version="1.0" xmlns="http://www.w3.org/2000/svg"
 width="400.000000pt" height="400.000000pt" viewBox="0 0 400.000000 400.000000"
 preserveAspectRatio="xMidYMid meet">
<metadata>
Created by potrace 1.14, written by Peter Selinger 2001-2017
</metadata>
<g transform="translate(0.000000,400.000000) scale(0.100000,-0.100000)"
fill="#000000" stroke="none">
<path d="M0 2000 l0 -2000 2000 0 2000 0 0 2000 0 2000 -2000 0 -2000 0 0
-2000z m2091 775 c56 -20 104 -58 141 -110 29 -41 32 -43 60 -33 43 15 140 4
193 -23 115 -58 185 -205 156 -329 -10 -42 -9 -46 12 -60 46 -30 97 -95 118
-149 43 -113 10 -253 -79 -333 -35 -31 -40 -42 -45 -95 -17 -158 -121 -267
-267 -280 -32 -3 -71 -1 -88 5 -28 10 -31 8 -60 -33 -118 -167 -346 -167 -464
0 -29 41 -32 42 -60 33 -45 -16 -137 -5 -191 22 -92 46 -152 138 -164 253 -5
53 -10 64 -45 95 -123 111 -130 320 -14 435 22 23 49 47 58 52 15 9 16 16 7
55 -29 125 41 271 158 330 54 27 146 38 191 22 28 -9 31 -8 60 33 75 107 205
151 323 110z"/>
<path d="M2203 2278 c-11 -13 -80 -113 -153 -223 -73 -110 -135 -202 -137
-204 -2 -3 -36 27 -76 67 -52 52 -80 72 -98 72 -29 0 -59 -28 -59 -55 0 -10
48 -67 107 -126 108 -110 131 -123 165 -96 29 23 348 512 348 534 0 51 -61 70
-97 31z"/>
</g>
</svg>
